<?xml version="1.0" encoding="UTF-8" standalone="no"?>
<!-- Created with Inkscape (http://www.inkscape.org/) -->

<svg
   width="1985.7886"
   height="514.49298"
   viewBox="0 0 525.40656 136.12627"
   version="1.1"
   id="svg1"
   xml:space="preserve"
   xmlns="http://www.w3.org/2000/svg"
   xmlns:svg="http://www.w3.org/2000/svg"><defs
     id="defs1"><rect
       x="386.03998"
       y="528.44086"
       width="15.5751"
       height="114.58823"
       id="rect4" /><rect
       x="269.22672"
       y="267.00171"
       width="2.2250142"
       height="102.35066"
       id="rect2" /></defs><g
     id="layer1"><text
       xml:space="preserve"
       style="font-size:25.4px;text-align:start;writing-mode:lr-tb;direction:ltr;text-anchor:start;white-space:pre;inline-size:44.3716;display:inline;fill:#000000;stroke-width:0.264583"
       x="72.999008"
       y="71.527252"
       id="text1"><tspan
         x="72.999008"
         y="71.527252"
         id="tspan4"><tspan
           dx="0 17.735352 10.839649 15.130859 15.254883 10.008694 6.9701157 15.416107 16.073441 8.9296875 19.694923 15.254883 24.70546 15.130859"
           id="tspan3">Creation Games</tspan></tspan></text><text
       xml:space="preserve"
       transform="scale(0.26458333)"
       id="text2"
       style="font-size:96px;text-align:start;writing-mode:lr-tb;direction:ltr;white-space:pre;shape-inside:url(#rect2);display:inline;fill:#000000" /><path
       style="font-size:21.2888px;font-family:Ultra;-inkscape-font-specification:'Ultra, Normal';stroke-width:1.50935"
       d="m 34.801362,3.3850205 q 3.117234,0 5.815736,0.5259946 2.745027,0.5259945 4.978269,1.386713 2.233241,0.8129005 3.861651,1.7692546 1.628404,0.9085361 2.651973,1.6736189 V 5.2977281 H 67.462532 V 31.358369 H 51.178475 q 0,-3.203785 -0.790942,-5.355581 -0.744415,-2.151796 -2.047141,-3.490692 -1.256195,-1.338895 -2.977656,-1.912707 -1.721456,-0.573812 -3.722069,-0.573812 -2.745027,0 -4.699114,1.099806 -1.954087,1.05199 -3.210286,3.442874 -1.209674,2.390885 -1.861036,6.359753 -0.604836,3.968868 -0.604836,9.659174 0,5.785938 0.651362,9.706991 0.697888,3.873234 2.047139,6.311937 1.395777,2.390884 3.535968,3.49069 2.14019,1.051988 5.117847,1.051988 2.000613,0 3.86165,-0.765085 1.861031,-0.812897 3.25681,-2.438702 1.442304,-1.6258 2.233241,-4.064502 0.837468,-2.438702 0.837468,-5.881574 h 16.191009 q 0,6.072846 -1.861036,11.476245 -1.861036,5.403398 -5.815735,9.4679 -3.954703,4.064507 -10.049591,6.455391 -6.094892,2.390884 -14.469552,2.390884 -7.537194,0 -14.283447,-2.10398 Q 15.818801,73.581391 10.794005,69.086526 5.8157357,64.591662 2.8846049,57.562463 0,50.485447 0,40.587184 0,30.688921 2.9311308,23.659721 5.9087872,16.582703 10.74748,12.08784 15.632697,7.5929771 21.867166,5.488999 28.101635,3.3850205 34.801362,3.3850205 Z m 69.463148,19.6530705 -0.79094,13.149865 h 0.79094 q 1.6284,-7.555195 5.397,-11.428428 3.81512,-3.873233 9.86349,-3.873233 3.58249,0 6.14142,1.195442 2.60544,1.147625 4.18733,3.10815 1.58187,1.960525 2.27976,4.542681 0.69789,2.534337 0.69789,5.259945 0,2.247432 -0.65136,4.447046 -0.65136,2.199613 -2.09367,3.968868 -1.4423,1.769255 -3.72207,2.869064 -2.27976,1.051988 -5.62963,1.051988 -4.65259,0 -7.35109,-2.438703 -2.65197,-2.438703 -2.65197,-5.881576 0,-1.67362 0.37221,-2.821244 0.37221,-1.195443 0.74441,-1.912708 0.41871,-0.765083 0.55831,-1.099807 0.1396,-0.334721 -0.32566,-0.334721 -0.97705,0 -2.14019,2.295249 -1.11662,2.295248 -1.11662,7.220471 v 10.950249 q 0,2.534338 0.83746,3.634144 0.88399,1.051988 3.34987,1.051988 h 2.79155 V 75.733185 H 76.628156 V 57.992821 h 2.745026 q 1.907562,0 2.884604,-1.24326 1.023568,-1.291078 1.023568,-3.060332 v -9.08536 q 0,-2.247431 -1.302721,-3.012514 -1.256199,-0.812901 -2.884609,-0.812901 H 76.628156 V 23.038091 Z m 57.78514,29.312246 q 0.18611,7.124835 2.60546,9.850441 2.46587,2.677792 7.0254,2.677792 1.53536,0 2.97766,-0.430339 1.48883,-0.478181 2.74503,-1.482351 1.2562,-1.051988 2.14019,-2.725606 0.93052,-1.72144 1.20967,-4.303592 h 16.93542 q -0.93051,6.168482 -3.44291,10.328621 -2.46587,4.160138 -6.37405,6.742294 -3.90817,2.534334 -9.11907,3.634145 -5.16437,1.147624 -11.53842,1.147624 -6.56015,0 -12.32936,-1.721436 -5.76921,-1.721441 -10.14264,-5.212131 -4.32691,-3.538508 -6.79278,-8.846271 -2.46588,-5.355585 -2.46588,-12.719505 0,-7.029202 2.3263,-12.336966 2.32629,-5.307763 6.51362,-8.846273 4.23386,-3.586326 9.95655,-5.403398 5.7692,-1.817073 12.65503,-1.817073 8.46772,0 14.56261,2.295249 6.09489,2.29525 9.95654,6.407571 3.86164,4.112322 5.67615,9.898262 1.81451,5.785941 1.72146,12.862961 z m 6.88584,-18.553266 q -3.25682,0 -4.83869,2.390885 -1.53536,2.343067 -2.04715,7.794283 h 13.63209 q -0.27915,-4.686133 -1.95409,-7.411741 -1.67493,-2.773427 -4.79216,-2.773427 z m 58.66914,-4.112321 q -2.37282,0 -4.09427,0.38254 -1.67494,0.334722 -2.88461,0.812901 -1.20967,0.478178 -2.00061,1.099808 -0.79094,0.573812 -1.39578,1.05199 l 0.46526,0.478176 q 0.88399,-0.478176 1.90756,-0.956354 1.07009,-0.478177 2.6985,-0.478177 2.74503,0 4.74564,1.864891 2.00061,1.817072 2.00061,5.833758 0,3.825415 -3.07071,6.168482 -3.02417,2.295247 -8.14202,2.295247 -4.88522,0 -7.81635,-2.86906 -2.88461,-2.916879 -2.88461,-8.224642 0,-2.916879 1.58188,-5.785941 1.58188,-2.916879 4.88522,-5.212128 3.34987,-2.295249 8.46771,-3.777597 5.16437,-1.482349 12.42241,-1.482349 8.65382,0 14.14387,1.673619 5.49006,1.673619 8.51424,4.303592 3.07071,2.629973 4.18733,5.977212 1.16315,3.347238 1.16315,6.742294 V 58.27973 q 0,4.35141 0.27915,5.929392 0.27916,1.530168 2.09367,1.530168 1.4423,0 2.00062,-1.386714 0.60483,-1.434532 0.60483,-4.877404 v -5.977211 h 5.30395 v 6.072847 q 0,4.303592 -0.69789,7.650828 -0.69789,3.299423 -2.65197,5.690307 -1.95409,2.343066 -5.30395,3.538508 -3.34987,1.24326 -8.56076,1.24326 -4.69912,0 -7.81635,-1.051988 -3.07071,-1.004174 -4.88522,-2.534338 -1.81451,-1.530169 -2.60545,-3.155968 -0.74442,-1.673618 -0.74442,-2.964697 h -0.74441 q -0.27916,1.960527 -1.62841,3.729781 -1.30272,1.769254 -3.67554,3.155968 -2.32629,1.338892 -5.62964,2.151794 -3.25681,0.86072 -7.44414,0.86072 -4.00122,0 -7.30456,-0.812902 -3.25681,-0.765084 -5.5831,-2.438702 -2.27978,-1.721436 -3.5825,-4.399229 -1.2562,-2.725606 -1.2562,-6.455386 0,-4.590501 2.5124,-7.22047 2.5124,-2.677793 6.32752,-4.207957 3.81512,-1.577986 8.28161,-2.534338 4.51301,-1.004175 8.32813,-2.390884 3.81512,-1.386715 6.32752,-3.586329 2.5124,-2.199614 2.5124,-6.2163 0,-3.586326 -2.18672,-5.738122 -2.18672,-2.199614 -7.16498,-2.199614 z m 9.35171,20.705061 q -1.02357,1.530164 -2.55893,2.48652 -1.53535,0.908534 -2.97766,1.817072 -1.39577,0.860716 -2.46587,2.103976 -1.02357,1.195442 -1.02357,3.251605 0,1.577982 0.83747,2.86906 0.83746,1.24326 3.25681,1.24326 2.18672,0 3.53597,-1.721436 1.39578,-1.769254 1.39578,-4.925223 z M 306.51253,5.2977281 V 23.038091 h 13.91123 v 17.740363 h -13.91123 v 14.680029 q 0,3.155968 0.83746,5.164313 0.88399,2.008344 3.58249,2.008344 1.48883,0 2.37282,-0.573812 0.93052,-0.62163 1.44231,-1.577986 0.55831,-1.00417 0.69789,-2.247431 0.1396,-1.291078 0.1396,-2.773428 v -7.124834 h 5.35047 V 56.0323 q 0,4.638314 -0.97704,8.654998 -0.93052,4.016689 -3.25681,6.933567 -2.27977,2.916878 -6.23447,4.638314 -3.9547,1.721436 -9.95654,1.721436 -6.6532,0 -10.6079,-1.673618 -3.95472,-1.673618 -6.00186,-4.590496 -2.04714,-2.916878 -2.6985,-6.933567 -0.60484,-4.016684 -0.60484,-8.750634 V 40.778454 h -7.30457 V 24.998616 q 3.48944,0 6.4671,-1.530165 3.02418,-1.577985 5.16437,-4.303593 2.18672,-2.773426 3.34987,-6.311935 1.20967,-3.5385089 1.20967,-7.5551949 z"
       id="text3"
       aria-label="Creat" /><path
       style="font-size:22.0955px;font-family:Ultra;-inkscape-font-specification:'Ultra, Normal';stroke-width:1.56654"
       d="m 491.98946,46.024798 q 0,-1.935557 -0.4829,-3.077039 -0.4346,-1.191112 -1.15893,-1.786667 -0.67602,-0.645186 -1.54523,-0.843705 -0.86921,-0.198517 -1.69012,-0.198517 -3.13881,0 -4.68404,1.885927 -1.54524,1.885926 -1.54524,5.360001 v 7.097041 q 0,2.630374 0.86921,3.771853 0.9175,1.091852 3.47678,1.091852 h 2.60762 V 77.738148 H 447.46709 V 59.325544 h 2.84905 q 1.97984,0 2.99388,-1.29037 1.06238,-1.34 1.06238,-3.176296 v -9.429636 q 0,-2.332594 -1.3521,-3.126668 -1.30381,-0.843704 -2.99388,-0.843704 h -2.55933 V 23.046267 h 28.68362 l -1.01409,13.648156 h 0.82091 q 1.06234,-7.642968 6.519,-11.76223 5.45666,-4.119261 14.82471,-4.119261 6.61558,0 10.76844,1.935557 4.15281,1.935556 6.42241,4.913335 2.31785,2.928151 3.13876,6.402227 0.82091,3.424446 0.82091,6.451855 v 13.945933 q 0,2.630374 0.86921,3.771853 0.9175,1.091852 3.47682,1.091852 h 2.60758 v 18.412604 h -33.41591 z"
       id="text3-1"
       aria-label="n" /><path
       d="m 443.35878,41.21929 -2.55575,-9.602686 c -5.36954,-0.43834 -8.59893,-0.104305 -11.16075,-3.453256 l -7.9e-4,-0.003 c -2.57084,-3.359524 -1.38987,-6.419619 -0.41495,-11.683922 l -8.59603,-4.982139 c -4.05126,3.439016 -6.14152,6.009263 -10.34431,5.447954 l -0.003,7.75e-4 c -4.18626,-0.559543 -5.50977,-3.547754 -8.54422,-7.9675974 l -9.60277,2.5557944 c -0.43615,5.318075 -0.0967,8.590572 -3.4534,11.160744 l -0.003,7.75e-4 c -3.35892,2.573839 -6.41196,1.395131 -11.68396,0.415103 l -4.98212,8.595925 c 3.4534,4.069743 6.01013,6.144639 5.44795,10.34433 -0.56096,4.193136 -3.56915,5.525118 -7.96689,8.547373 l 2.5558,9.602681 c 5.30757,0.4327 8.5907,0.09656 11.1608,3.453326 2.58851,3.3899 1.37364,6.525748 0.41496,11.683855 l 8.59676,4.985163 c 4.05348,-3.442681 6.14444,-6.010034 10.34431,-5.447951 l 0.003,-7.76e-4 c 4.18932,0.558844 5.51525,3.556002 8.54442,7.96767 l 9.60276,-2.555792 c 0.4357,-5.321109 0.10164,-8.585501 3.47467,-11.175969 l 0.003,-8.48e-4 c 3.33523,-2.55488 6.37856,-1.376735 11.66018,-0.396036 l 4.98152,-8.599096 c -3.44659,-4.055575 -6.00929,-6.141537 -5.45016,-10.340453 0.56095,-4.193208 3.57946,-5.534212 7.97186,-8.551953 z m -33.76877,16.572617 c -6.56324,1.74678 -13.3009,-2.15834 -15.04771,-8.721582 -1.74685,-6.563309 2.15826,-13.300963 8.7215,-15.047749 6.56339,-1.746851 13.30105,2.158198 15.04785,8.721581 1.74686,6.563241 -2.1583,13.300897 -8.72164,15.04775 z"
       id="path1"
       style="stroke-width:3.0746" /><text
       xml:space="preserve"
       transform="scale(0.26458333)"
       id="text4"
       style="font-style:normal;font-variant:normal;font-weight:normal;font-stretch:normal;font-size:63.9999px;font-family:Ultra;-inkscape-font-specification:'Ultra, Normal';font-variant-ligatures:normal;font-variant-caps:normal;font-variant-numeric:normal;font-variant-east-asian:normal;text-align:start;writing-mode:lr-tb;direction:ltr;white-space:pre;shape-inside:url(#rect4);display:inline;fill:#000000" /><text
       xml:space="preserve"
       style="font-style:normal;font-variant:normal;font-weight:normal;font-stretch:normal;font-size:16.9333px;font-family:Roboto;-inkscape-font-specification:Roboto;font-variant-ligatures:normal;font-variant-caps:normal;font-variant-numeric:normal;font-variant-east-asian:normal;text-align:start;writing-mode:lr-tb;direction:ltr;text-anchor:start;fill:#000000;stroke-width:0.264583"
       x="124.80476"
       y="177.49356"
       id="text5"><tspan
         id="tspan5"
         style="stroke-width:0.264583"
         x="124.80476"
         y="177.49356" /></text><path
       d="m 386.48823,125.76398 q -2.01261,2.88292 -5.62985,4.32437 -3.59005,1.41426 -8.37678,1.41426 -4.84112,0 -8.59435,-2.25737 -3.75323,-2.28457 -5.82022,-6.47296 -2.0398,-4.18839 -2.0942,-9.70945 v -3.45406 q 0,-8.94792 4.16119,-13.870638 4.18839,-4.922713 11.74925,-4.922713 6.20098,0 9.98141,3.182086 3.78043,3.154887 4.62355,8.975115 h -5.22189 q -1.46866,-7.860024 -9.35588,-7.860024 -5.24908,0 -7.96881,3.698834 -2.69254,3.67164 -2.71974,10.66135 v 3.23649 q 0,6.66334 3.0461,10.60695 3.0461,3.91642 8.24079,3.91642 2.93732,0 5.14029,-0.65274 2.20299,-0.65274 3.64445,-2.20298 v -8.89353 h -9.1655 v -4.24278 h 14.36019 z m 26.08223,5.19469 q -0.43515,-0.87032 -0.70713,-3.10049 -3.50846,3.64443 -8.37678,3.64443 -4.35157,0 -7.15289,-2.44775 -2.77413,-2.47496 -2.77413,-6.25539 0,-4.59634 3.48126,-7.12569 3.50845,-2.55655 9.84543,-2.55655 h 4.89551 v -2.31177 q 0,-2.63814 -1.57744,-4.18839 -1.57745,-1.57745 -4.65074,-1.57745 -2.69254,0 -4.51476,1.35987 -1.82222,1.35986 -1.82222,3.29087 h -5.0587 q 0,-2.20298 1.55025,-4.24278 1.57744,-2.06699 4.24278,-3.26369 2.69254,-1.19668 5.90182,-1.19668 5.0859,0 7.96881,2.55656 2.88292,2.52935 2.99171,6.98971 v 13.54427 q 0,4.0524 1.03349,6.44576 v 0.43515 z m -8.34958,-3.83482 q 2.36616,0 4.48756,-1.22388 2.12139,-1.22388 3.07329,-3.18209 v -6.0378 h -3.94361 q -9.24709,0 -9.24709,5.41226 0,2.36617 1.57745,3.69884 1.57744,1.33267 4.0524,1.33267 z m 25.21192,-25.59269 0.13599,3.26369 q 3.23648,-3.80764 8.73034,-3.80764 6.17379,0 8.40397,4.73234 1.46865,-2.12139 3.80762,-3.42686 2.36617,-1.30548 5.57546,-1.30548 9.68225,0 9.84542,10.2534 v 19.71806 h -5.03149 v -19.41889 q 0,-3.15488 -1.44149,-4.70513 -1.44144,-1.57745 -4.8411,-1.57745 -2.80132,0 -4.65074,1.68624 -1.84942,1.65903 -2.14859,4.48756 v 19.52767 h -5.0587 v -19.2829 q 0,-6.41857 -6.28258,-6.41857 -4.94992,0 -6.77213,4.21558 v 21.48589 h -5.03151 v -29.42751 z m 56.29844,29.97145 q -5.98342,0 -9.73665,-3.91641 -3.75322,-3.94361 -3.75322,-10.52536 v -0.92471 q 0,-4.37877 1.65906,-7.80563 1.68624,-3.45406 4.67793,-5.38508 3.01891,-1.95821 6.52734,-1.95821 5.73863,0 8.92071,3.78044 3.18209,3.78043 3.18209,10.82453 v 2.09419 h -19.93564 q 0.1089,4.35158 2.52936,7.04411 2.44778,2.66534 6.201,2.66534 2.66536,0 4.51477,-1.08789 1.84941,-1.0879 3.23649,-2.88292 l 3.07327,2.39337 q -3.69882,5.68423 -11.09651,5.68423 z m -0.62554,-26.38139 q -3.0461,0 -5.11308,2.23017 -2.06699,2.20299 -2.55654,6.201 H 492.177 v -0.38075 q -0.2178,-3.83482 -2.06698,-5.92902 -1.84941,-2.12139 -5.00432,-2.12139 z m 35.05735,18.03182 q 0,-2.0398 -1.55025,-3.15489 -1.52303,-1.14229 -5.35789,-1.95821 -3.80758,-0.81592 -6.06496,-1.95821 -2.2302,-1.14228 -3.31808,-2.71973 -1.06069,-1.57744 -1.06069,-3.75323 0,-3.61724 3.04609,-6.11939 3.07328,-2.50217 7.83284,-2.50217 5.00427,0 8.10477,2.58376 3.12773,2.58374 3.12773,6.60895 h -5.05872 q 0,-2.067 -1.76783,-3.56285 -1.74064,-1.49585 -4.40595,-1.49585 -2.74694,0 -4.29719,1.19668 -1.55025,1.19668 -1.55025,3.12769 0,1.82222 1.44144,2.74693 1.44149,0.92471 5.19472,1.76782 3.7804,0.84312 6.11937,2.01261 2.33896,1.16948 3.45406,2.82852 1.14228,1.63184 1.14228,3.998 0,3.94362 -3.15486,6.33698 -3.1549,2.36616 -8.1864,2.36616 -3.53565,0 -6.25541,-1.25107 -2.71971,-1.25108 -4.26996,-3.48126 -1.52307,-2.25738 -1.52307,-4.86832 h 5.03154 q 0.13613,2.52935 2.01258,4.0252 1.90382,1.46866 5.00432,1.46866 2.8557,0 4.56917,-1.14229 1.7406,-1.16948 1.7406,-3.10049 z"
       id="text6"
       style="font-size:12.2754px;font-family:Roboto;-inkscape-font-specification:Roboto;stroke-width:1.30547"
       aria-label="Games" /><text
       xml:space="preserve"
       style="font-size:11.2889px;font-family:Roboto;-inkscape-font-specification:Roboto;text-align:start;writing-mode:lr-tb;direction:ltr;text-anchor:start;fill:#000000;stroke-width:0.264583"
       x="119.7272"
       y="82.786179"
       id="text31"><tspan
         id="tspan31"
         style="stroke-width:0.264583"
         x="119.7272"
         y="82.786179"></tspan></text><text
       xml:space="preserve"
       style="font-size:11.2889px;font-family:Roboto;-inkscape-font-specification:Roboto;text-align:start;writing-mode:lr-tb;direction:ltr;text-anchor:start;fill:#000000;stroke-width:0.264583"
       x="121.64048"
       y="87.863724"
       id="text32"><tspan
         id="tspan32"
         style="stroke-width:0.264583"
         x="121.64048"
         y="87.863724"></tspan></text><g
       id="g1"
       transform="matrix(4.9340617,0,0,4.9340617,25.414309,-306.80013)"><path
         style="font-size:20.3198px;font-family:Ultra;-inkscape-font-specification:'Ultra, Normal';stroke-width:0.317496"
         d="m 68.535956,65.838869 v 6.181267 q 0,0.664759 0.327419,0.873116 0.327419,0.198436 0.833429,0.198436 h 0.267888 v 3.680979 h -8.354136 v -3.680979 h 0.386949 q 0.525855,0 0.773899,-0.327419 0.257966,-0.33734 0.257966,-0.72429 v -1.39897 q 0,-0.575463 -0.367106,-0.843351 -0.357184,-0.27781 -0.833429,-0.27781 h -0.218279 v -3.680979 z m -5.665334,-2.440758 q 0,-0.853272 0.644915,-1.458501 0.654838,-0.605228 1.855373,-0.605228 1.220378,0 1.875215,0.605228 0.66476,0.605229 0.66476,1.458501 0,0.873117 -0.66476,1.478345 -0.654837,0.595307 -1.875215,0.595307 -1.200535,0 -1.855373,-0.595307 -0.644915,-0.605228 -0.644915,-1.478345 z"
         id="text3-2"
         transform="scale(0.98639991,1.0137876)"
         aria-label="i" /></g><path
       d="m 325.05226,130.02083 0.0454,-35.758514 c -0.0145,-1.617275 -1.05619,-3.1662 -2.90218,-4.311003 -1.84449,-1.143873 -4.34596,-1.792378 -6.95787,-1.803872 L 15.459874,88.000997 c -2.611974,0.0091 -5.115063,0.655007 -6.9624645,1.797074 -1.8489016,1.142997 -2.8947745,2.690924 -2.9133316,4.308162 l -0.045394,35.758537 c 0.014293,1.61729 1.0563632,3.16618 2.9023486,4.31099 1.8459905,1.14479 4.3459665,1.79239 6.9578755,1.80389 l 299.777722,0.14656 c 2.61197,-0.01 5.11356,-0.65411 6.96246,-1.79708 1.84891,-1.14303 2.89478,-2.69094 2.91334,-4.30818 z m -308.401624,2.3873 c -2.948398,-0.01 -5.334806,-1.48792 -5.342745,-3.31337 l 0.04342,-34.210983 c 0.01284,-1.825584 2.403041,-3.303197 5.351187,-3.308116 l 6.659819,-0.02087 -0.05211,40.880569 z m 298.647264,0.14606 -286.235395,-0.10164 0.0521,-40.90675 16.930248,0.02133 0.0077,9.33245 c -0.0036,0.47056 0.297708,0.92363 0.835012,1.25685 0.537272,0.33319 1.267022,0.51956 2.028543,0.51901 1.569599,-0.002 2.842791,-0.78911 2.84849,-1.76095 l -0.08884,-9.308446 16.951412,0.0082 -0.06797,20.465486 c 0.0033,0.97186 1.272939,1.75924 2.842496,1.76279 1.569608,-0.002 2.841289,-0.78817 2.846989,-1.76001 l 0.04538,-20.453356 16.951412,0.0082 -0.0118,9.346496 c -0.06221,0.4901 0.209045,0.97473 0.747778,1.33675 0.541732,0.36201 1.299991,0.56793 2.094578,0.56739 0.796084,3.9e-4 1.554792,-0.20477 2.096016,-0.56534 0.539659,-0.36151 0.813645,-0.84496 0.751186,-1.33602 l 0.0118,-9.346499 16.951405,0.0082 -0.0118,9.346499 c -0.0622,0.4901 0.20905,0.97472 0.74778,1.33675 0.54024,0.3611 1.29999,0.56793 2.09458,0.56739 0.79608,3.9e-4 1.55478,-0.20478 2.09602,-0.56535 0.53966,-0.36146 0.81213,-0.84588 0.75118,-1.33601 l 0.11426,-9.407877 16.95141,0.0082 -0.0118,9.346487 -0.002,-9.5e-4 c 0.11448,0.9198 1.3512,1.63095 2.84418,1.63168 1.48997,7.2e-4 2.73153,-0.70919 2.84684,-1.62983 l 0.0118,-9.346489 16.95142,0.0082 -0.0454,20.453349 -0.002,9.5e-4 c -0.001,0.98024 1.28042,1.77505 2.86352,1.77585 1.58309,7.8e-4 2.86678,-0.7928 2.86653,-1.77211 l 0.007,-20.453379 16.95141,0.0082 -0.0118,9.346499 -0.002,-9.5e-4 c 0.0213,0.98676 1.32999,1.77601 2.92363,1.76284 1.59364,-0.0132 2.86832,-0.82349 2.84706,-1.81024 l -0.0693,-9.296307 16.95141,0.0082 -0.0118,9.346497 c -0.0622,0.4901 0.20905,0.97474 0.74929,1.33583 0.53873,0.362 1.29849,0.56886 2.09305,0.56834 0.79607,3.9e-4 1.55478,-0.20478 2.09601,-0.56534 0.53966,-0.36151 0.81214,-0.8459 0.75273,-1.33697 l 0.0118,-9.346501 16.95141,0.0082 -0.0118,9.346491 -0.002,9.5e-4 c 0.003,0.97187 1.27294,1.75927 2.84249,1.7628 0.76001,0.002 1.4932,-0.18341 2.03136,-0.51609 0.53812,-0.33265 0.83912,-0.78637 0.83672,-1.25696 l -0.01,-9.333411 16.95141,0.0082 -0.007,20.453381 c 0.11448,0.91983 1.35269,1.63191 2.84418,1.63166 1.48997,7.4e-4 2.73002,-0.70823 2.84683,-1.62796 l 0.0263,-20.441458 59.76977,0.07945 c 1.10546,-0.0032 2.16402,0.267987 2.94441,0.751934 0.7789,0.483048 1.21667,1.139848 1.20826,1.823369 l -0.1639,35.708925 c -0.003,1.41454 -1.85671,2.56033 -4.14134,2.56019 z"
       id="path1-1"
       style="fill:#000000;stroke-width:0.427886" /><path
       d="m 306.5252,106.50804 c -1.642,-1.49567 -3.87163,-2.33712 -6.19691,-2.33869 -2.32538,1.9e-4 -4.55544,0.83937 -6.19998,2.33449 -1.64452,1.49514 -2.56779,3.52289 -2.56643,5.63851 0.001,2.1139 0.92603,4.14205 2.57,5.63579 1.64609,1.49378 3.87673,2.33247 6.20196,2.33026 2.32436,-0.003 4.55346,-0.84496 6.19492,-2.3429 1.6395,-1.49427 2.55841,-3.51808 2.55828,-5.62927 -10e-4,-2.11016 -0.9218,-4.13445 -2.56189,-5.62838 z m -6.21791,10.04137 c -2.66892,-0.0577 -4.8147,-2.01226 -4.87398,-4.43964 0.002,-1.79302 1.19225,-3.40943 3.01497,-4.09437 1.82287,-0.68502 3.91884,-0.3041 5.31258,0.96544 1.39371,1.26951 1.81037,3.17728 1.05423,4.83396 -0.75611,1.65676 -2.53641,2.73614 -4.50782,2.73456 z"
       id="path2"
       style="fill:#000000;stroke-width:0.353059" /></g></svg>
